<mxfile host="app.diagrams.net" modified="2023-07-10T13:11:31.187Z" agent="Mozilla/5.0 (Windows NT 10.0; Win64; x64) AppleWebKit/537.36 (KHTML, like Gecko) Chrome/114.0.0.0 Safari/537.36" etag="63HpAFwezaFFzicIhEfZ" version="21.3.7" type="device">
  <diagram name="Page-1" id="8q4ryw4c7CBCpBgxQbcg">
    <mxGraphModel dx="792" dy="746" grid="1" gridSize="10" guides="1" tooltips="1" connect="1" arrows="1" fold="1" page="1" pageScale="1" pageWidth="850" pageHeight="1100" math="0" shadow="0">
      <root>
        <mxCell id="0" />
        <mxCell id="1" parent="0" />
        <mxCell id="metv6KM_hr5JrDXol8Im-1" value="Database" style="rounded=0;whiteSpace=wrap;html=1;fillColor=#dae8fc;strokeColor=#6c8ebf;" vertex="1" parent="1">
          <mxGeometry x="130" y="350" width="530" height="60" as="geometry" />
        </mxCell>
        <mxCell id="metv6KM_hr5JrDXol8Im-2" value="DBAPI (Python Drivers)" style="rounded=0;whiteSpace=wrap;html=1;fillColor=#cdeb8b;strokeColor=#36393d;" vertex="1" parent="1">
          <mxGeometry x="130" y="330" width="530" height="20" as="geometry" />
        </mxCell>
        <mxCell id="metv6KM_hr5JrDXol8Im-3" value="SQLAlchemy" style="rounded=0;whiteSpace=wrap;html=1;fillColor=#ffff88;strokeColor=#36393d;" vertex="1" parent="1">
          <mxGeometry x="130" y="270" width="530" height="60" as="geometry" />
        </mxCell>
        <mxCell id="metv6KM_hr5JrDXol8Im-4" value="Flask" style="rounded=0;whiteSpace=wrap;html=1;fillColor=#ffcccc;strokeColor=#36393d;" vertex="1" parent="1">
          <mxGeometry x="130" y="210" width="530" height="60" as="geometry" />
        </mxCell>
        <mxCell id="metv6KM_hr5JrDXol8Im-5" value="Smorest/Marshmallow (API templates, automatic docs)" style="rounded=0;whiteSpace=wrap;html=1;fillColor=#ffcc99;strokeColor=#36393d;" vertex="1" parent="1">
          <mxGeometry x="130" y="180" width="530" height="30" as="geometry" />
        </mxCell>
        <mxCell id="metv6KM_hr5JrDXol8Im-6" value="Waitress (in Prod)" style="rounded=0;whiteSpace=wrap;html=1;fillColor=#eeeeee;strokeColor=#36393d;" vertex="1" parent="1">
          <mxGeometry x="130" y="160" width="530" height="20" as="geometry" />
        </mxCell>
      </root>
    </mxGraphModel>
  </diagram>
</mxfile>
